# xmcd
#
# Track frame offsets: 
#        150
#        14193
#        26816
#        38553
#        50478
#        65105
#        79646
#        93112
#        106858
#        119241
#        131641
#        144592
#        158017
#        171612
#        185692
#        198637
#        211205
#        225641
#        239386
#        252297
#        266435
#        281461
#        294150
#
# Disc length: 4095 seconds
#
# Revision: 0
# Processed by: cddbd v1.5.2PL0 Copyright (c) Steve Scherf et al.
# Submitted via: ExactAudioCopyFreeDBPlugin 1.0
#
DISCID=570ffd17
DTITLE=Norfolk Jubilee Quartette - Norfolk Jazz and Jubilee Quartets: Co
DTITLE=mplete Recorded Works Vol. 4 (1927-1929)
DYEAR=1995
DGENRE=Gospel
TTITLE0=King Jesus Stand by Me
TTITLE1=My Lord's Gonna Move This Wicked Race
TTITLE2=Father Prepare Me
TTITLE3=Ride On King Jesus
TTITLE4=Our Father
TTITLE5=I Have Anchored My Soul
TTITLE6=Crying Holy unto the Lord
TTITLE7=Ezekiel Saw de Wheel
TTITLE8=Where Shall I Be
TTITLE9=I'm Gonna Build Right on Dat Shore
TTITLE10=I Wouldn't Mind Dying If Dying Was All
TTITLE11=His Eye Is on the Sparrow
TTITLE12=How It Is with Me
TTITLE13=Wonder Where Is the Gamblin' Man
TTITLE14=He Just Hung His Head and Died
TTITLE15=Sinner You Can't Hide
TTITLE16=When the Moon Goes Down
TTITLE17=Lord, I Don't Care Where They Bury My Body
TTITLE18=I Want to Know Will He Welcome Me There
TTITLE19=I'm Going Through
TTITLE20=You're Going to Need That Pure Religion
TTITLE21=Way Down in Egyptland
TTITLE22=I Heard the Voice of Jesus Say
EXTD=
EXTT0=
EXTT1=
EXTT2=
EXTT3=
EXTT4=
EXTT5=
EXTT6=
EXTT7=
EXTT8=
EXTT9=
EXTT10=
EXTT11=
EXTT12=
EXTT13=
EXTT14=
EXTT15=
EXTT16=
EXTT17=
EXTT18=
EXTT19=
EXTT20=
EXTT21=
EXTT22=
PLAYORDER=
